<?xml version="1.0" encoding="utf-8"?><!-- Uploaded to: SVG Repo, www.svgrepo.com, Generator: SVG Repo Mixer Tools -->
<svg version="1.1" id="Uploaded to svgrepo.com" xmlns="http://www.w3.org/2000/svg" xmlns:xlink="http://www.w3.org/1999/xlink" 
	 width="800px" height="800px" viewBox="0 0 32 32" xml:space="preserve">
<style type="text/css">
	.blueprint_een{fill:#111918;}
</style>
<path class="blueprint_een" d="M31.207,22.793l-21-21c-0.391-0.391-1.023-0.391-1.414,0l-8,8C0.605,9.98,0.5,10.235,0.5,10.5
	c0,3.533,10.467,14,14,14c0.265,0,0.52-0.105,0.707-0.293l4.293-4.293l7.293,7.293c0.195,0.195,0.451,0.293,0.707,0.293
	s0.512-0.098,0.707-0.293l3-3C31.598,23.816,31.598,23.184,31.207,22.793z M14.139,22.447c-2.786-0.73-10.856-8.8-11.586-11.586
	l1.376-1.376c1.694,3.566,8.02,9.891,11.586,11.586L14.139,22.447z M16.258,20.328c-3.116-1.191-10.395-8.47-11.586-11.586
	L9.5,3.914L21.086,15.5L16.258,20.328z M27.5,25.086l-7.293-7.293l1.586-1.586l7.293,7.293L27.5,25.086z M9.5,6
	C8.672,6,8,6.672,8,7.5S8.672,9,9.5,9S11,8.328,11,7.5S10.328,6,9.5,6z M9.5,8C9.224,8,9,7.776,9,7.5C9,7.224,9.224,7,9.5,7
	S10,7.224,10,7.5C10,7.776,9.776,8,9.5,8z"/>
</svg>